<svg width="256" height="256" viewBox="0 0 256 256" xmlns="http://www.w3.org/2000/svg" fill="none">
  <defs>
    <linearGradient id="g" x1="0" y1="0" x2="1" y2="1">
      <stop offset="0%" stop-color="#ff7a59" />
      <stop offset="100%" stop-color="#ffbf59" />
    </linearGradient>
    <linearGradient id="g2" x1="0" y1="0" x2="1" y2="1">
      <stop offset="0%" stop-color="#ffffff" stop-opacity="0.9" />
      <stop offset="100%" stop-color="#fff1e6" stop-opacity="0.9" />
    </linearGradient>
  </defs>

  <!-- Rounded square backdrop -->
  <rect x="16" y="16" width="224" height="224" rx="56" fill="url(#g)"/>

  <!-- Plate -->
  <circle cx="128" cy="128" r="68" fill="url(#g2)" stroke="#ffffff" stroke-opacity="0.6" stroke-width="3"/>
  <circle cx="128" cy="128" r="44" fill="#ffffff" fill-opacity="0.85"/>

  <!-- Fork (left) -->
  <g transform="translate(86,88)" stroke="#1a1a1a" stroke-width="4" stroke-linecap="round">
    <line x1="0" y1="0" x2="0" y2="44"/>
    <line x1="-8" y1="0" x2="-8" y2="18"/>
    <line x1="8" y1="0" x2="8" y2="18"/>
    <line x1="-16" y1="0" x2="-16" y2="18"/>
  </g>

  <!-- Spoon (right) -->
  <g transform="translate(170,112)">
    <path d="M0 -14c8 0 14 6 14 14s-6 14-14 14c-1.5 0-3-0.2-4.4-0.7V28c0 2.2-1.8 4-4 4s-4-1.8-4-4v-15.5-9.2c0-6.3 5.1-11.4 11.4-11.4z" fill="#1a1a1a"/>
  </g>

  <!-- Steam/leaf accent to hint freshness -->
  <path d="M128 70c10 10 16 20 0 30" stroke="#1a1a1a" stroke-width="3" stroke-linecap="round" fill="none" opacity="0.8"/>
  <path d="M116 92c6-12 14-18 24-20" stroke="#1a1a1a" stroke-width="2" stroke-linecap="round" fill="none" opacity="0.6"/>
</svg>
